# xmcd CD database file
#
# Track frame offsets:
#	150
#	16035
#	31812
#	47144
#	59569
#	69724
#	81676
#	94916
#	108327
#	121546
#
# Disc length: 1772 seconds
#
# Revision: 0
# Processed by: cddbd v1.5.2PL0 Copyright (c) Steve Scherf et al.
# Submitted via: CDex 1.51
#
DISCID=8006ea0a
DTITLE=Various Artist - The Best Of Country
DYEAR=2006
DGENRE=Country
TTITLE0=Willie Nelson - Always On My Mind
TTITLE1=Dolly Parton - Heartbreaker
TTITLE2=Kris Kristofferson - For The Good Times
TTITLE3=Barbara Mandrell - Midnight Oil
TTITLE4=Billy Walker - Charlie's Shoes
TTITLE5=Stonewall Jackson - A Wound Time Can't Erase
TTITLE6=Charlie Rich - Behind Closed Doors
TTITLE7=Claude King - Wolverton Mountain
TTITLE8=David Houston - Almost Persuaded
TTITLE9=George Jones - A Picture Of Me (Without You)
EXTD=YEAR: 2006
EXTT0=
EXTT1=
EXTT2=
EXTT3=
EXTT4=
EXTT5=
EXTT6=
EXTT7=
EXTT8=
EXTT9=
PLAYORDER=
